<svg xmlns="http://www.w3.org/2000/svg" xmlns:xlink="http://www.w3.org/1999/xlink" xmlns:xodm="http://www.corel.com/coreldraw/odm/2003" xml:space="preserve" width="3.93701" height="0.835327" version="1.1" style="shape-rendering:geometricPrecision; text-rendering:geometricPrecision; image-rendering:optimizeQuality; fill-rule:evenodd; clip-rule:evenodd" viewBox="0 0 831.38 176.4">
 <defs>
  <style type="text/css">
   <![CDATA[
    .fil1 {fill:#FEFEFE}
    .fil0 {fill:#FEFEFE;fill-rule:nonzero}
   ]]>
  </style>
 </defs>
 <g id="Layer_x0020_1">
  <metadata id="CorelCorpID_0Corel-Layer"/>
  <g id="_2219480888368">
   <g>
    <path class="fil0" d="M312.9 17.77l-67.72 0c-4.55,0.25 -6.84,2.17 -6.84,5.78l0 68.78 20.3 0 0 -54.25 47.46 0 6.79 6.82 0 47.43 20.34 0 0 -54.25 -20.34 -20.3zm45.38 27.13l0 -27.13 -20.3 0 0 74.56 20.3 0 0 -27.13 54.25 0 0 27.13 20.34 0 0 -74.56 -20.34 0 0 27.13 -54.25 0zm153.88 -27.13l-67.72 0c-4.55,0.25 -6.83,2.17 -6.83,5.78l0 68.78 20.3 0 0 -27.13 54.25 0 0 27.13 20.34 0 0 -54.25 -20.34 -20.3zm-54.25 27.13l0 -6.82 47.46 0 6.79 6.82 -54.25 0zm153.88 -27.13l-67.72 0c-4.55,0.25 -6.84,2.17 -6.84,5.78l0 68.78 20.3 0 0 -54.25 47.46 0 6.79 6.82 0 47.43 20.34 0 0 -54.25 -20.34 -20.3zm99.63 0l0 47.43 -6.79 6.82 -47.46 0 0 -54.25 -20.3 0 0 67.72c0,4.26 2.28,6.52 6.84,6.84l67.72 0 20.34 -20.3 0 -54.25 -20.34 0zm99.63 0l-67.72 0c-4.55,0.25 -6.84,2.17 -6.84,5.78l0 68.78 20.3 0 0 -54.25 47.46 0 6.79 6.82 0 47.43 20.34 0 0 -54.25 -20.34 -20.3z"/>
    <path class="fil0" d="M259.17 149.81c0,0.28 -0.18,0.42 -0.54,0.42l-3.35 0c-0.39,0 -0.71,-0.14 -0.94,-0.42l-12.09 -14.71 0 14.27c0,0.25 -0.07,0.46 -0.21,0.61 -0.14,0.16 -0.32,0.24 -0.55,0.24l-2.36 0c-0.22,0 -0.41,-0.08 -0.55,-0.24 -0.15,-0.16 -0.22,-0.36 -0.22,-0.61l0 -30.18c0,-0.22 0.08,-0.41 0.24,-0.57 0.16,-0.16 0.35,-0.24 0.57,-0.24l2.26 0c0.22,0 0.41,0.07 0.57,0.22 0.16,0.14 0.24,0.34 0.24,0.59l0 13.86 12.34 -14.27c0.26,-0.26 0.56,-0.4 0.86,-0.4l3.09 0c0.39,0 0.59,0.16 0.59,0.48 0,0.17 -0.06,0.31 -0.16,0.42l-12.89 14.58 12.89 15.42c0.14,0.14 0.21,0.31 0.21,0.52zm8.1 -27.78c0,0.25 -0.09,0.46 -0.25,0.61 -0.17,0.16 -0.37,0.24 -0.61,0.24l-2.18 0c-0.24,0 -0.44,-0.09 -0.61,-0.25 -0.16,-0.17 -0.25,-0.37 -0.25,-0.61l0 -3.41c0,-0.24 0.08,-0.44 0.24,-0.61 0.16,-0.16 0.36,-0.25 0.61,-0.25l2.18 0c0.26,0 0.47,0.08 0.63,0.23 0.15,0.16 0.23,0.36 0.23,0.63l0 3.41zm-0.09 27.35c0,0.25 -0.09,0.46 -0.25,0.61 -0.16,0.16 -0.37,0.24 -0.61,0.24l-2.05 0c-0.21,0 -0.41,-0.09 -0.59,-0.25 -0.18,-0.17 -0.27,-0.37 -0.27,-0.61l0 -21.85c0,-0.24 0.09,-0.44 0.25,-0.61 0.16,-0.16 0.37,-0.25 0.61,-0.25l2.05 0c0.26,0 0.47,0.08 0.63,0.23 0.15,0.16 0.23,0.36 0.23,0.63l0 21.85zm14.23 -2.14c0.94,0 1.88,-0.09 2.79,-0.27 0.91,-0.18 1.81,-0.42 2.68,-0.72 0.87,-0.3 1.57,-0.56 2.1,-0.76 0.31,-0.14 0.55,-0.15 0.72,-0.03 0.18,0.11 0.26,0.31 0.26,0.57l0 1.76c0,0.29 -0.2,0.55 -0.59,0.78 -2.49,1.31 -5.14,1.96 -7.97,1.96 -1.79,0 -3.41,-0.31 -4.87,-0.95 -1.46,-0.64 -2.63,-1.72 -3.52,-3.24 -0.89,-1.53 -1.34,-3.56 -1.34,-6.08l0 -3.88c0,-3.09 0.84,-5.54 2.5,-7.33 1.67,-1.79 4.01,-2.69 7.02,-2.69 2.02,0 3.74,0.41 5.16,1.23 1.42,0.81 2.49,1.98 3.19,3.5 0.71,1.52 1.07,3.29 1.07,5.29l0 2.33c0,0.63 -0.27,0.94 -0.82,0.94l-14.35 0 0 0.61c0,2.48 0.48,4.26 1.45,5.36 0.97,1.09 2.47,1.63 4.51,1.63zm5.39 -10.46l0 -0.4c0,-1.57 -0.2,-2.86 -0.61,-3.86 -0.41,-1.01 -1.03,-1.74 -1.85,-2.18 -0.83,-0.45 -1.87,-0.67 -3.14,-0.67 -3.84,0 -5.75,2.24 -5.75,6.71l0 0.4 11.36 0zm7.41 -24.46c0,0.11 -0.06,0.23 -0.17,0.34l-4.86 5.4c-0.25,0.28 -0.42,0.46 -0.52,0.54 -0.1,0.08 -0.25,0.11 -0.46,0.11l-2.33 0c-0.25,0 -0.37,-0.1 -0.37,-0.29 0,-0.18 0.06,-0.33 0.16,-0.44l4.21 -5.31c0.22,-0.28 0.39,-0.45 0.5,-0.52 0.11,-0.07 0.29,-0.11 0.53,-0.11l2.82 0c0.32,0 0.49,0.1 0.49,0.29zm-5.86 11.56c0,0.19 -0.13,0.29 -0.39,0.29l-2.22 0c-0.21,0 -0.36,-0.04 -0.46,-0.12 -0.1,-0.07 -0.28,-0.25 -0.53,-0.53l-3.51 -4.14 -3.56 4.14c-0.24,0.26 -0.41,0.44 -0.52,0.52 -0.11,0.09 -0.26,0.13 -0.46,0.13l-2.24 0c-0.25,0 -0.38,-0.1 -0.38,-0.29 0,-0.19 0.06,-0.33 0.17,-0.44l4.12 -5.31c0.22,-0.28 0.39,-0.46 0.5,-0.52 0.11,-0.07 0.29,-0.11 0.52,-0.11l3.64 0c0.36,0 0.72,0.21 1.06,0.63l4.09 5.31c0.11,0.11 0.16,0.26 0.16,0.44zm24.46 11.44l0 14.06c0,0.24 -0.09,0.44 -0.27,0.61 -0.18,0.16 -0.37,0.25 -0.59,0.25l-2.05 0c-0.24,0 -0.44,-0.09 -0.61,-0.25 -0.16,-0.17 -0.25,-0.37 -0.25,-0.61l0 -14.06c0,-1.42 -0.17,-2.55 -0.51,-3.39 -0.34,-0.84 -0.88,-1.43 -1.61,-1.79 -0.73,-0.36 -1.69,-0.55 -2.86,-0.55 -1.76,0 -3.6,0.26 -5.53,0.78l0 19.02c0,0.22 -0.09,0.42 -0.26,0.59 -0.18,0.18 -0.37,0.26 -0.6,0.26l-2.09 0c-0.21,0 -0.39,-0.09 -0.56,-0.25 -0.16,-0.17 -0.25,-0.37 -0.25,-0.61l0 -20.66c0,-0.53 0.26,-0.87 0.78,-1.02 3.47,-0.89 6.42,-1.34 8.85,-1.34 1.6,0 2.96,0.2 4.07,0.6 1.11,0.39 1.97,0.97 2.59,1.72 0.62,0.76 1.06,1.67 1.34,2.76 0.27,1.08 0.41,2.37 0.41,3.88zm28.15 14.27c0,0.42 -0.26,0.66 -0.77,0.74 -0.95,0.14 -1.88,0.21 -2.79,0.21 -2.09,0 -3.59,-0.39 -4.48,-1.19 -0.89,-0.79 -1.34,-2.3 -1.34,-4.55l0 -14.96 -4.16 -0.46c-0.54,-0.04 -0.81,-0.3 -0.81,-0.77l0 -1.17c0,-0.51 0.27,-0.76 0.81,-0.76l4.16 0 0 -4.21c0,-0.47 0.26,-0.76 0.76,-0.86l2.24 -0.34 0.13 0c0.19,0 0.35,0.07 0.47,0.2 0.11,0.14 0.18,0.31 0.18,0.51l0 4.69 4.62 0c0.24,0 0.44,0.09 0.61,0.25 0.17,0.17 0.25,0.37 0.25,0.61l0 1.44c0,0.24 -0.09,0.44 -0.27,0.61 -0.18,0.17 -0.37,0.26 -0.59,0.26l-4.62 0 0 14.96c0,1.14 0.16,1.88 0.48,2.21 0.32,0.33 0.93,0.49 1.82,0.49l2.41 0c0.6,0 0.9,0.2 0.9,0.61l0 1.49zm19.79 -0.99c0,0.54 -0.21,0.85 -0.64,0.94 -1.12,0.32 -2.24,0.56 -3.39,0.74 -1.14,0.16 -2.42,0.25 -3.86,0.25 -3.34,0 -5.73,-0.56 -7.19,-1.69 -1.46,-1.12 -2.19,-2.92 -2.19,-5.39l0 -0.38c0,-1.61 0.34,-2.91 1.01,-3.94 0.68,-1.01 1.78,-1.77 3.29,-2.27 1.51,-0.49 3.52,-0.74 6.02,-0.74l3.18 0 0 -1.71c0,-1.79 -0.34,-3.02 -1.03,-3.71 -0.68,-0.69 -1.86,-1.04 -3.56,-1.04 -1.29,0 -2.41,0.09 -3.34,0.26 -0.93,0.17 -2,0.44 -3.21,0.81 -0.29,0.09 -0.53,0.09 -0.72,-0.02 -0.19,-0.11 -0.28,-0.29 -0.28,-0.53l0 -1.67c0,-0.35 0.2,-0.61 0.61,-0.77 0.66,-0.29 1.63,-0.6 2.91,-0.91 1.29,-0.31 2.64,-0.47 4.03,-0.47 5.57,0 8.35,2.69 8.35,8.06l0 14.19zm-3.76 -1.4l0 -8.33 -3.18 0c-1.36,0 -2.44,0.07 -3.24,0.22 -0.81,0.14 -1.46,0.39 -1.94,0.72 -0.49,0.34 -0.83,0.76 -1.03,1.26 -0.2,0.51 -0.3,1.16 -0.3,1.96l0 0.38c0,1 0.16,1.81 0.47,2.41 0.31,0.61 0.88,1.05 1.69,1.33 0.81,0.28 1.95,0.42 3.4,0.42 0.57,0 1.12,-0.02 1.65,-0.05 0.54,-0.04 1.01,-0.09 1.44,-0.14 0.43,-0.06 0.77,-0.12 1.04,-0.19zm-3.14 9.19c0,0.24 -0.09,0.44 -0.26,0.59 -0.16,0.16 -0.36,0.24 -0.6,0.24l-1.68 0c-0.21,0 -0.41,-0.08 -0.59,-0.24 -0.18,-0.15 -0.27,-0.34 -0.27,-0.59l0 -3.47c0,-0.21 0.09,-0.41 0.27,-0.59 0.18,-0.18 0.38,-0.27 0.59,-0.27l1.68 0c0.24,0 0.44,0.09 0.6,0.27 0.17,0.18 0.26,0.38 0.26,0.59l0 3.47zm30.04 -16.3c0,3.21 -0.82,5.75 -2.46,7.63 -1.64,1.88 -4,2.81 -7.09,2.81 -3.06,0 -5.42,-0.94 -7.06,-2.81 -1.64,-1.88 -2.46,-4.42 -2.46,-7.63l0 -3.26c0,-3.22 0.82,-5.77 2.46,-7.65 1.64,-1.87 4,-2.81 7.06,-2.81 3.09,0 5.44,0.94 7.09,2.81 1.64,1.88 2.46,4.43 2.46,7.65l0 3.26zm-3.76 0l0 -3.26c0,-1.49 -0.21,-2.77 -0.62,-3.84 -0.41,-1.06 -1.04,-1.89 -1.9,-2.46 -0.86,-0.57 -1.94,-0.86 -3.26,-0.86 -1.94,0 -3.38,0.62 -4.33,1.87 -0.95,1.25 -1.42,3.01 -1.42,5.29l0 3.26c0,4.77 1.91,7.16 5.75,7.16 1.94,0 3.39,-0.62 4.34,-1.86 0.96,-1.24 1.44,-3.01 1.44,-5.29zm36.46 9.29c0,0.24 -0.09,0.44 -0.27,0.61 -0.18,0.16 -0.37,0.25 -0.59,0.25l-2.05 0c-0.24,0 -0.44,-0.09 -0.61,-0.25 -0.16,-0.17 -0.25,-0.37 -0.25,-0.61l0 -14.11c0,-2.06 -0.39,-3.51 -1.18,-4.35 -0.79,-0.84 -1.93,-1.26 -3.42,-1.26 -0.79,0 -1.76,0.1 -2.91,0.31 -1.16,0.2 -2.15,0.49 -2.99,0.89l0 18.52c0,0.22 -0.09,0.42 -0.26,0.59 -0.18,0.18 -0.37,0.26 -0.6,0.26l-2.09 0c-0.21,0 -0.39,-0.09 -0.56,-0.25 -0.16,-0.17 -0.25,-0.37 -0.25,-0.61l0 -30.51c0,-0.25 0.08,-0.46 0.23,-0.61 0.16,-0.16 0.35,-0.24 0.59,-0.24l2.13 0c0.25,0 0.45,0.09 0.6,0.24 0.14,0.16 0.21,0.36 0.21,0.61l0 8.84c0.99,-0.45 2.08,-0.79 3.26,-1.01 1.18,-0.22 2.28,-0.34 3.29,-0.34 1.55,0 2.91,0.31 4.06,0.94 1.16,0.62 2.06,1.6 2.7,2.95 0.64,1.34 0.96,3.02 0.96,5.03l0 14.11zm21.28 -0.78c0,0.54 -0.21,0.85 -0.64,0.94 -1.12,0.32 -2.24,0.56 -3.39,0.74 -1.14,0.16 -2.42,0.25 -3.86,0.25 -3.34,0 -5.73,-0.56 -7.19,-1.69 -1.46,-1.12 -2.19,-2.92 -2.19,-5.39l0 -0.38c0,-1.61 0.34,-2.91 1.01,-3.94 0.68,-1.01 1.78,-1.77 3.29,-2.27 1.51,-0.49 3.52,-0.74 6.02,-0.74l3.18 0 0 -1.71c0,-1.79 -0.34,-3.02 -1.03,-3.71 -0.68,-0.69 -1.86,-1.04 -3.56,-1.04 -1.29,0 -2.41,0.09 -3.34,0.26 -0.93,0.17 -2,0.44 -3.21,0.81 -0.29,0.09 -0.53,0.09 -0.72,-0.02 -0.19,-0.11 -0.28,-0.29 -0.28,-0.53l0 -1.67c0,-0.35 0.2,-0.61 0.61,-0.77 0.66,-0.29 1.63,-0.6 2.91,-0.91 1.29,-0.31 2.64,-0.47 4.03,-0.47 5.57,0 8.35,2.69 8.35,8.06l0 14.19zm-3.76 -1.4l0 -8.33 -3.18 0c-1.36,0 -2.44,0.07 -3.24,0.22 -0.81,0.14 -1.46,0.39 -1.94,0.72 -0.49,0.34 -0.83,0.76 -1.03,1.26 -0.2,0.51 -0.3,1.16 -0.3,1.96l0 0.38c0,1 0.16,1.81 0.47,2.41 0.31,0.61 0.88,1.05 1.69,1.33 0.81,0.28 1.95,0.42 3.4,0.42 0.57,0 1.12,-0.02 1.65,-0.05 0.54,-0.04 1.01,-0.09 1.44,-0.14 0.43,-0.06 0.77,-0.12 1.04,-0.19zm-3.14 9.19c0,0.24 -0.09,0.44 -0.26,0.59 -0.16,0.16 -0.36,0.24 -0.6,0.24l-1.68 0c-0.21,0 -0.41,-0.08 -0.59,-0.24 -0.18,-0.15 -0.27,-0.34 -0.27,-0.59l0 -3.47c0,-0.21 0.09,-0.41 0.27,-0.59 0.18,-0.18 0.38,-0.27 0.59,-0.27l1.68 0c0.24,0 0.44,0.09 0.6,0.27 0.17,0.18 0.26,0.38 0.26,0.59l0 3.47zm29.66 -21.07l0 14.06c0,0.24 -0.09,0.44 -0.27,0.61 -0.18,0.16 -0.37,0.25 -0.59,0.25l-2.05 0c-0.24,0 -0.44,-0.09 -0.61,-0.25 -0.16,-0.17 -0.25,-0.37 -0.25,-0.61l0 -14.06c0,-1.42 -0.17,-2.55 -0.51,-3.39 -0.34,-0.84 -0.88,-1.43 -1.61,-1.79 -0.73,-0.36 -1.69,-0.55 -2.86,-0.55 -1.76,0 -3.6,0.26 -5.53,0.78l0 19.02c0,0.22 -0.09,0.42 -0.26,0.59 -0.18,0.18 -0.37,0.26 -0.6,0.26l-2.09 0c-0.21,0 -0.39,-0.09 -0.56,-0.25 -0.16,-0.17 -0.25,-0.37 -0.25,-0.61l0 -20.66c0,-0.53 0.26,-0.87 0.78,-1.02 3.47,-0.89 6.42,-1.34 8.85,-1.34 1.6,0 2.96,0.2 4.07,0.6 1.11,0.39 1.97,0.97 2.59,1.72 0.62,0.76 1.06,1.67 1.34,2.76 0.27,1.08 0.41,2.37 0.41,3.88zm22.75 14.06c0,0.24 -0.09,0.44 -0.27,0.61 -0.18,0.16 -0.37,0.25 -0.59,0.25l-2.05 0c-0.24,0 -0.44,-0.09 -0.61,-0.25 -0.16,-0.17 -0.25,-0.37 -0.25,-0.61l0 -14.11c0,-2.06 -0.39,-3.51 -1.18,-4.35 -0.79,-0.84 -1.93,-1.26 -3.42,-1.26 -0.79,0 -1.76,0.1 -2.91,0.31 -1.16,0.2 -2.15,0.49 -2.99,0.89l0 18.52c0,0.22 -0.09,0.42 -0.26,0.59 -0.18,0.18 -0.37,0.26 -0.6,0.26l-2.09 0c-0.21,0 -0.39,-0.09 -0.56,-0.25 -0.16,-0.17 -0.25,-0.37 -0.25,-0.61l0 -30.51c0,-0.25 0.08,-0.46 0.23,-0.61 0.16,-0.16 0.35,-0.24 0.59,-0.24l2.14 0c0.25,0 0.45,0.09 0.6,0.24 0.14,0.16 0.21,0.36 0.21,0.61l0 8.84c0.99,-0.45 2.08,-0.79 3.26,-1.01 1.18,-0.22 2.28,-0.34 3.29,-0.34 1.55,0 2.91,0.31 4.06,0.94 1.16,0.62 2.06,1.6 2.7,2.95 0.64,1.34 0.96,3.02 0.96,5.03l0 14.11zm33.42 -9.33c0,3.39 -0.79,5.99 -2.36,7.79 -1.58,1.8 -3.91,2.7 -6.99,2.7 -1.58,0 -3.24,-0.16 -5.01,-0.46l0 7.74c0,0.22 -0.08,0.41 -0.24,0.57 -0.16,0.16 -0.36,0.24 -0.58,0.24l-2.17 0c-0.24,0 -0.43,-0.08 -0.57,-0.23 -0.14,-0.16 -0.21,-0.35 -0.21,-0.59l0 -29.48c0,-0.29 0.06,-0.51 0.19,-0.65 0.13,-0.14 0.36,-0.25 0.71,-0.34 0.71,-0.19 1.53,-0.35 2.46,-0.5 0.93,-0.16 1.84,-0.27 2.74,-0.36 0.9,-0.09 1.79,-0.13 2.67,-0.13 2.08,0 3.81,0.43 5.21,1.29 1.39,0.86 2.44,2.09 3.12,3.68 0.68,1.59 1.02,3.46 1.02,5.63l0 3.09zm-3.76 0l0 -3.09c0,-1.56 -0.18,-2.89 -0.52,-3.98 -0.35,-1.09 -0.94,-1.94 -1.77,-2.53 -0.83,-0.6 -1.93,-0.9 -3.29,-0.9 -1.75,0 -3.41,0.14 -5.01,0.41l0 16.97c1.51,0.29 3.18,0.44 5.01,0.44 2.01,0 3.44,-0.61 4.3,-1.84 0.86,-1.23 1.29,-3.06 1.29,-5.49zm25.88 9.33c0,0.24 -0.09,0.44 -0.27,0.61 -0.18,0.16 -0.37,0.25 -0.59,0.25l-2.05 0c-0.24,0 -0.44,-0.09 -0.61,-0.25 -0.16,-0.17 -0.25,-0.37 -0.25,-0.61l0 -14.11c0,-2.06 -0.39,-3.51 -1.18,-4.35 -0.79,-0.84 -1.93,-1.26 -3.42,-1.26 -0.79,0 -1.76,0.1 -2.91,0.31 -1.16,0.2 -2.15,0.49 -2.99,0.89l0 18.52c0,0.22 -0.09,0.42 -0.26,0.59 -0.18,0.18 -0.37,0.26 -0.6,0.26l-2.09 0c-0.21,0 -0.39,-0.09 -0.56,-0.25 -0.16,-0.17 -0.25,-0.37 -0.25,-0.61l0 -30.51c0,-0.25 0.08,-0.46 0.23,-0.61 0.16,-0.16 0.35,-0.24 0.59,-0.24l2.14 0c0.25,0 0.45,0.09 0.6,0.24 0.14,0.16 0.21,0.36 0.21,0.61l0 8.84c0.99,-0.45 2.08,-0.79 3.26,-1.01 1.18,-0.22 2.28,-0.34 3.29,-0.34 1.55,0 2.91,0.31 4.06,0.94 1.16,0.62 2.06,1.6 2.7,2.95 0.64,1.34 0.96,3.02 0.96,5.03l0 14.11zm4.71 -7.81l0 -14.04c0,-0.24 0.08,-0.44 0.24,-0.61 0.16,-0.16 0.36,-0.25 0.61,-0.25l2.05 0c0.24,0 0.44,0.09 0.61,0.25 0.17,0.17 0.25,0.37 0.25,0.61l0 14.04c0,2.11 0.39,3.59 1.16,4.46 0.77,0.86 2.04,1.3 3.8,1.3 0.66,0 1.54,-0.08 2.66,-0.23 1.11,-0.16 2.08,-0.34 2.89,-0.55l0 -19.02c0,-0.22 0.08,-0.42 0.24,-0.59 0.16,-0.18 0.36,-0.26 0.61,-0.26l2.09 0c0.24,0 0.44,0.09 0.59,0.25 0.16,0.17 0.23,0.37 0.23,0.61l0 20.66c0,0.53 -0.26,0.87 -0.77,1.02 -3.43,0.88 -6.39,1.32 -8.87,1.32 -2.11,0 -3.78,-0.35 -5.02,-1.05 -1.24,-0.69 -2.11,-1.69 -2.61,-3 -0.51,-1.3 -0.76,-2.94 -0.76,-4.91zm15.67 -24.42c0,0.11 -0.05,0.22 -0.16,0.34l-4.86 5.4c-0.25,0.28 -0.42,0.46 -0.52,0.54 -0.1,0.07 -0.25,0.11 -0.46,0.11l-2.33 0c-0.25,0 -0.37,-0.1 -0.37,-0.29 0,-0.19 0.06,-0.33 0.16,-0.44l4.21 -5.31c0.22,-0.28 0.39,-0.45 0.5,-0.52 0.11,-0.07 0.29,-0.11 0.53,-0.11l2.82 0c0.32,0 0.48,0.1 0.48,0.29zm15.56 33.38c-1.45,0 -2.76,-0.24 -3.93,-0.72 -1.16,-0.48 -2.14,-1.18 -2.91,-2.09 -0.77,-0.91 -1.35,-1.99 -1.73,-3.24 -0.37,-1.25 -0.56,-2.71 -0.56,-4.35l0 -3.35c0,-2.16 0.34,-4.02 1.01,-5.58 0.68,-1.55 1.71,-2.75 3.08,-3.59 1.37,-0.84 3.05,-1.26 5.04,-1.26 1.17,0 2.27,0.14 3.31,0.43 1.03,0.29 1.79,0.58 2.3,0.87 0.25,0.14 0.41,0.26 0.49,0.36 0.07,0.11 0.11,0.29 0.11,0.54l0 1.53c0,0.6 -0.33,0.79 -0.99,0.56 -1.86,-0.66 -3.6,-0.99 -5.23,-0.99 -3.57,0 -5.36,2.37 -5.36,7.11l0 3.35c0,2.36 0.46,4.14 1.36,5.33 0.91,1.19 2.24,1.78 3.99,1.78 1.63,0 3.37,-0.33 5.23,-0.99 0.66,-0.24 0.99,-0.05 0.99,0.55l0 1.54c0,0.25 -0.04,0.44 -0.13,0.54 -0.09,0.11 -0.24,0.24 -0.48,0.36 -0.54,0.29 -1.32,0.58 -2.34,0.86 -1.01,0.28 -2.1,0.42 -3.27,0.42z"/>
   </g>
   <path class="fil1" d="M68.45 75.5c-13.49,-19.08 -20.97,-41.61 -21.6,-65l-0.01 -0.23c-28.74,15.24 -46.96,45.16 -46.84,77.9 0.01,2.17 0.09,4.35 0.25,6.52l0.08 1.15c0.11,1.29 0.25,2.59 0.42,3.89 1.23,0.09 2.46,0.16 3.69,0.2l0.27 0.01 0.07 0.01 1 0.02c0.56,0.01 1.13,0.02 1.69,0.02 22.67,0 44.26,-8.61 60.7,-24.22 0.09,-0.09 0.19,-0.18 0.28,-0.27z"/>
   <path class="fil1" d="M77.16 0.68c-0.16,2.2 -0.25,4.4 -0.25,6.6 0,48.71 39.49,88.2 88.2,88.2 2.02,0 4.04,-0.07 6.05,-0.21l1.32 -0.09 0.21 -0.03 0.15 -0.01c1.11,-0.1 2.21,-0.22 3.31,-0.35 0.16,-2.19 0.24,-4.39 0.24,-6.59 0,-48.71 -39.49,-88.2 -88.2,-88.2 -3.69,0 -7.38,0.23 -11.04,0.68zm98.81 78.82c-2.13,0.18 -4.29,0.27 -6.47,0.27 -42.51,0 -76.98,-34.47 -76.98,-76.98 0,-0.9 0.02,-1.79 0.05,-2.69 -1.45,-0.07 -2.91,-0.11 -4.37,-0.11 -1.15,0 -2.3,0.02 -3.44,0.07 -0.03,0.91 -0.05,1.82 -0.05,2.73 0,46.83 37.97,84.79 84.79,84.79 2.32,0 4.62,-0.1 6.89,-0.28 -0.03,-2.63 -0.16,-5.24 -0.42,-7.81zm-2.65 -14.46c-1.26,0.08 -2.54,0.12 -3.82,0.12 -34.45,0 -62.37,-27.92 -62.37,-62.37 0,-0.25 0.01,-0.5 0.01,-0.75 -2.08,-0.45 -4.18,-0.84 -6.31,-1.14 -0.02,0.63 -0.03,1.26 -0.03,1.89 0,37.94 30.76,68.7 68.7,68.7 1.78,0 3.53,-0.07 5.28,-0.2 -0.41,-2.11 -0.89,-4.2 -1.45,-6.25zm-5.1 -13.98c-24.85,-0.65 -45.03,-20.08 -46.87,-44.62 -1.65,-0.67 -3.31,-1.29 -5,-1.86 0.95,28.54 24.38,51.39 53.15,51.39 0.28,0 0.55,-0.01 0.83,-0.01 -0.65,-1.66 -1.36,-3.3 -2.11,-4.91zm-7.4 -12.93c-12.54,-3.07 -22.53,-12.64 -26.19,-24.94 -1.45,-0.9 -2.93,-1.77 -4.44,-2.58 3.26,16.5 16.66,29.36 33.43,31.83 -0.89,-1.46 -1.83,-2.9 -2.8,-4.31z"/>
   <path class="fil1" d="M168.12 125.55l-0.23 0c-0.92,0.02 -1.85,0.03 -2.77,0.03 -28,0 -54.88,-9.81 -76.24,-27.84l-3.32 2.91c-20.84,18.28 -47.21,28.66 -74.93,29.39l-0.03 0c15.5,28.5 45.1,46.35 77.61,46.35 34.33,0 65.46,-19.91 79.92,-50.84z"/>
  </g>
 </g>
</svg>